<svg xmlns="http://www.w3.org/2000/svg" width="222" height="227" viewBox="0 0 222 227">
  <defs>
    <style>
      .cls-1 {
        fill: #fff;
        fill-rule: evenodd;
      }
    </style>
  </defs>
  <path class="cls-1" d="M80.56,102.516s7.994-37.833,52.271-37.833c-1.23-7.933-3.69-10.374,8.609-21.357C148.82,36,160.5,27.46,143.285,0c3.075,11.594,6.15,20.747-6.149,27.46-8.61,6.712-19.064,11.594-16.6,26.239-2.46-.61-13.529,6.712-11.07-2.441,3.69-8.543,11.07-15.255-4.3-31.731,3.689,10.374,3.075,17.7-5.535,23.8-4.3,7.323-5.535,12.814-1.23,22.578C91.629,72.616,80.56,83.6,80.56,102.516Zm23.368-23.8s14.759-14.035,40.587-7.323C145.13,64.683,146.36,55.53,168.5,56.75c7.994-1.831,13.529-3.661,14.144-8.543C180.8,58.581,180.8,63.462,165.424,68.344c-4.305.61-13.529,3.051-3.69,7.323a32.545,32.545,0,0,1,5.535,4.272s9.224-12.815,23.368-4.272C199.246,77.5,210.316,84.82,222,62.852c-4.92,14.645-7.38,26.85-28.9,28.07-7.38-1.22-19.679-6.712-27.673,5.492C158.044,87.871,137.136,66.513,103.928,78.718Zm30.748,2.441s24.6,7.323,33.208,26.849c5.534-1.22,15.988-4.882,22.753,7.323,4.305,6.712,10.454,10.983,18.449,9.763-11.684,3.661-12.914,9.153-31.363-5.492-4.92,1.831-4.92,7.933-2.46,12.2,5.535,1.221,18.449,1.831,20.294,24.409,5.534,6.1,7.994,12.2,23.983,10.374-19.064,3.661-23.983,9.153-40.587-14.035-3.69-6.713-6.15-15.866-17.834-12.205C162.349,129.976,164.809,92.753,134.676,81.159Zm19.064,26.849s7.994,31.121-30.133,57.36c3.689,4.272,8.609,15.256,1.23,23.188-4.305,8.543-9.225,26.85,15.988,38.444-9.224-12.815-14.144-20.137-4.3-29.9,5.534-12.814,10.454-10.983,3.075-24.408,1.844-4.882,6.149-9.764,6.149-9.764s6.765,3.051,5.535,12.815c1.845,7.933.615,13.425,13.529,17.086-6.15-9.764-6.15-14.645-3.075-24.409,1.23-9.763-1.23-16.476-7.994-18.916C155.584,140.96,162.349,131.2,153.74,108.008Zm-9.225,29.29S114.382,170.86,80.56,149.5c-2.46,6.712-6.15,16.475-19.064,16.475-7.379,1.831-22.139,5.492-19.064,36.613,3.69-15.255,6.15-22.578,18.449-21.357,10.454-3.051,19.064-1.221,25.213-15.256a107.418,107.418,0,0,0,11.069.611s0,7.322-6.15,10.984c-6.15,4.271-10.454,10.373-6.15,22.577,4.3-12.814,6.764-17.7,15.989-16.475,7.994-4.882,12.914-9.764,10.454-20.137C121.147,159.876,135.291,156.215,144.515,137.3Zm-79.944-28.68s7.38,39.054,47.966,42.105c-19.063-.61-26.443-1.831-38.127-7.933-7.38,3.051-17.219,9.764-33.823-1.83-4.92-.611-10.454.61-12.3,3.051C35.053,137.3,36.9,128.145,49.2,133.637c5.535,1.22,13.529,3.051,9.839-5.492-3.075-3.051-5.535-5.492-11.069-3.661-4.92,0-14.759-3.051-19.064-11.594-7.994-4.882-11.069-12.2-28.9-.611,9.224-9.153,22.138-20.747,40.587-9.153C49.2,109.839,56.576,117.161,64.571,108.618ZM88.554,70.785s-26.443,28.68-3.075,64.072c-12.3-16.475-16.6-18.306-17.219-36-6.764-2.441-17.219-.61-19.679-25.019-4.3-5.492-4.92-10.374-11.069-10.374,11.684,1.831,16.6-5.492,26.443,19.527,4.92-2.441,3.075-1.831,4.92-10.374-6.15-9.153-9.839-9.153-6.765-32.341C56.576,29.9,63.956,29.9,44.277,22.578,63.341,25.629,75.64,29.9,76.255,47.6,76.87,56.14,78.1,70.785,88.554,70.785Z"/>
</svg>
